<svg width="60" height="60" xmlns="http://www.w3.org/2000/svg">
 <title/>

 <g>
  <title>background</title>
  <rect fill="none" id="canvas_background" height="402" width="582" y="-1" x="-1"/>
 </g>
 <g>
  <title>Layer 1</title>
  <path id="Facebook" fill="#7e7e7e" d="m30,60c16.568539,0 30,-13.431461 30,-30c0,-16.56854 -13.431461,-30 -30,-30c-16.56854,0 -30,13.43146 -30,30c0,16.568539 13.43146,30 30,30z"/>
  <path id="svg_1" fill="#111" d="m25.462219,47.314308l0,-17.315348l-3.518929,0l0,-5.739601l3.518929,0l0,-3.47097c0,-4.681749 1.39978,-8.057769 6.525881,-8.057769l6.098261,0l0,5.72782l-4.294102,0c-2.15036,0 -2.640388,1.42894 -2.640388,2.92532l0,2.875599l6.61755,0l-0.903252,5.739601l-5.714298,0l0,17.315348l-5.689651,0z"/>
 </g>
</svg>