<?xml version="1.0" encoding="UTF-8" standalone="no"?>
<svg
   xmlns:dc="http://purl.org/dc/elements/1.1/"
   xmlns:cc="http://creativecommons.org/ns#"
   xmlns:rdf="http://www.w3.org/1999/02/22-rdf-syntax-ns#"
   xmlns:svg="http://www.w3.org/2000/svg"
   xmlns="http://www.w3.org/2000/svg"
   xmlns:sodipodi="http://sodipodi.sourceforge.net/DTD/sodipodi-0.dtd"
   xmlns:inkscape="http://www.inkscape.org/namespaces/inkscape"
   width="49.200001"
   height="49.200001"
   version="1.1"
   id="svg14"
   sodipodi:docname="ic_instagram.svg"
   inkscape:version="0.92.4 (5da689c313, 2019-01-14)">
  <metadata
     id="metadata20">
    <rdf:RDF>
      <cc:Work
         rdf:about="">
        <dc:format>image/svg+xml</dc:format>
        <dc:type
           rdf:resource="http://purl.org/dc/dcmitype/StillImage" />
        <dc:title></dc:title>
      </cc:Work>
    </rdf:RDF>
  </metadata>
  <defs
     id="defs18" />
  <sodipodi:namedview
     pagecolor="#ffffff"
     bordercolor="#666666"
     borderopacity="1"
     objecttolerance="10"
     gridtolerance="10"
     guidetolerance="10"
     inkscape:pageopacity="0"
     inkscape:pageshadow="2"
     inkscape:window-width="2560"
     inkscape:window-height="1017"
     id="namedview16"
     showgrid="false"
     fit-margin-top="0"
     fit-margin-left="0"
     fit-margin-right="0"
     fit-margin-bottom="0"
     inkscape:zoom="5.8863209"
     inkscape:cx="14.141566"
     inkscape:cy="-0.58984772"
     inkscape:window-x="-8"
     inkscape:window-y="107"
     inkscape:window-maximized="1"
     inkscape:current-layer="svg14" />
  <g
     id="g5"
     transform="translate(1,-351.8)">
    <title
       id="title2">background</title>
    <rect
       id="canvas_background"
       height="402"
       width="582"
       y="-1"
       x="-1"
       style="fill:none" />
  </g>
  <g
     id="g12"
     transform="translate(-3.7003353,-5.2000001)">
    <title
       id="title7">Layer 1</title>
    <circle
       id="svg_2"
       r="4.4000001"
       cy="30"
       cx="28.1"
       style="fill:#7e7e7e" />
    <path
       id="svg_3"
       d="M 33.599998,19.200001 H 22.6 c -1.6,0 -3,0.5 -3.9,1.4 -0.900002,0.9 -1.400002,2.299999 -1.400002,3.9 v 11 c 0,1.599998 0.5,3 1.5,4 1,0.900002 2.300001,1.400002 3.900002,1.400002 h 10.899998 c 1.600002,0 3,-0.5 3.900002,-1.400002 1,-0.900002 1.5,-2.299999 1.5,-3.900002 V 24.600001 c 0,-1.6 -0.5,-2.9 -1.400002,-3.9 -1,-1 -2.299999,-1.5 -4,-1.5 z M 28.1,36.799999 c -3.800001,0 -6.800001,-3.099998 -6.800001,-6.799999 0,-3.799999 3.1,-6.799999 6.800001,-6.799999 3.700001,0 6.9,3 6.9,6.799999 0,3.799999 -3.1,6.799999 -6.9,6.799999 z M 35.2,24.5 c -0.900002,0 -1.600002,-0.700001 -1.600002,-1.6 0,-0.899999 0.700001,-1.6 1.600002,-1.6 0.900001,0 1.599998,0.700001 1.599998,1.6 0,0.899999 -0.700001,1.6 -1.599998,1.6 z"
       inkscape:connector-curvature="0"
       style="fill:#7e7e7e" />
    <path
       id="svg_4"
       d="M 28.299999,5.2 C 14.7,5.2 3.7,16.200001 3.7,29.799999 c 0,13.600002 11,24.600002 24.599999,24.600002 13.600002,0 24.600002,-11 24.600002,-24.600002 C 52.999999,16.200001 41.900001,5.2 28.299999,5.2 Z m 13.100002,30.399999 c 0,2.300003 -0.800003,4.300003 -2.200001,5.700001 -1.400002,1.400002 -3.400002,2.100002 -5.600002,2.100002 H 22.7 c -2.200001,0 -4.200001,-0.700001 -5.6,-2.100002 -1.5,-1.399998 -2.200001,-3.399998 -2.200001,-5.700001 V 24.600001 c 0,-4.6 3.1,-7.800001 7.800001,-7.800001 h 11 c 2.299999,0 4.200001,0.800001 5.599998,2.200001 C 40.7,20.400001 41.4,22.3 41.4,24.600001 Z"
       inkscape:connector-curvature="0"
       style="fill:#7e7e7e" />
  </g>
</svg>
