<?xml version="1.0" encoding="UTF-8" standalone="no"?>
<svg
   xmlns:dc="http://purl.org/dc/elements/1.1/"
   xmlns:cc="http://creativecommons.org/ns#"
   xmlns:rdf="http://www.w3.org/1999/02/22-rdf-syntax-ns#"
   xmlns:svg="http://www.w3.org/2000/svg"
   xmlns="http://www.w3.org/2000/svg"
   xmlns:sodipodi="http://sodipodi.sourceforge.net/DTD/sodipodi-0.dtd"
   xmlns:inkscape="http://www.inkscape.org/namespaces/inkscape"
   height="143.96535"
   id="形状_1_1_"
   version="1.1"
   viewBox="0 0 400.0173 143.96535"
   width="400.0173"
   xml:space="preserve"
   sodipodi:docname="ic_nike.svg"
   inkscape:version="0.92.4 (5da689c313, 2019-01-14)"><metadata
     id="metadata12"><rdf:RDF><cc:Work
         rdf:about=""><dc:format>image/svg+xml</dc:format><dc:type
           rdf:resource="http://purl.org/dc/dcmitype/StillImage" /><dc:title></dc:title></cc:Work></rdf:RDF></metadata><defs
     id="defs10" /><sodipodi:namedview
     pagecolor="#ffffff"
     bordercolor="#666666"
     borderopacity="1"
     objecttolerance="10"
     gridtolerance="10"
     guidetolerance="10"
     inkscape:pageopacity="0"
     inkscape:pageshadow="2"
     inkscape:window-width="2560"
     inkscape:window-height="1017"
     id="namedview8"
     showgrid="false"
     fit-margin-top="0"
     fit-margin-left="0"
     fit-margin-right="0"
     fit-margin-bottom="0"
     inkscape:zoom="0.4609375"
     inkscape:cx="200.03997"
     inkscape:cy="71.514067"
     inkscape:window-x="-8"
     inkscape:window-y="107"
     inkscape:window-maximized="1"
     inkscape:current-layer="形状_1_1_" /><g
     id="形状_1"
     transform="translate(-55.960027,-183.54873)"><g
       id="g4"><path
         d="m 453.14,183.77 c -1.328,0.332 -296.636,80.361 -296.636,80.361 -5.7,1.6 -11.522,2.429 -17.188,2.459 -22.696,0.134 -42.891,-12.463 -42.728,-39.01 0.066,-10.389 3.247,-22.912 10.613,-37.647 -26.028,30.567 -50.988,68.477 -51.239,96.811 -0.096,10.661 3.306,19.969 11.47,27.022 11.75,10.146 24.693,13.728 37.576,13.748 18.825,0.026 37.518,-7.568 52.155,-13.424 24.651,-9.858 297.129,-128.185 297.129,-128.185 2.629,-1.315 2.135,-2.958 -1.152,-2.135 z"
         style="clip-rule:evenodd;fill:#1b1b1b;fill-rule:evenodd"
         id="path2"
         inkscape:connector-curvature="0" /></g></g></svg>