<svg width="48" height="48" xmlns="http://www.w3.org/2000/svg">

 <g>
  <title>background</title>
  <rect fill="none" id="canvas_background" height="402" width="582" y="-1" x="-1"/>
 </g>
 <g>
  <title>Layer 1</title>
  <circle id="svg_1" r="24" fill="#7e7e7e" cy="24" cx="24"/>
  <path id="svg_4" fill="#111" d="m36.799999,15.4c-0.899998,0.5 -2,0.800001 -3,0.9c1.100002,-0.699999 1.900002,-1.799999 2.299999,-3.099999c-1,0.6 -2.099998,1.1 -3.399998,1.400001c-1,-1.1 -2.300001,-1.8 -3.800001,-1.8c-2.9,0 -5.299999,2.5 -5.299999,5.7c0,0.4 0,0.9 0.1,1.299999c-4.400002,-0.199999 -8.300001,-2.5 -10.900001,-5.9c-0.5,0.8 -0.7,1.8 -0.7,2.9c0,2 0.9,3.700001 2.299999,4.700001c-0.9,0 -1.7,-0.299999 -2.4,-0.700001c0,0 0,0.1 0,0.1c0,2.700001 1.8,5 4.200001,5.6c-0.400001,0.1 -0.900001,0.200001 -1.400001,0.200001c-0.3,0 -0.7,0 -1,-0.1c0.7,2.299999 2.599999,3.9 4.900001,3.9c-1.800001,1.5 -4.1,2.400002 -6.500001,2.400002c-0.4,0 -0.8,0 -1.3,-0.100002c2.3,1.600002 5.1,2.600002 8.1,2.600002c9.700001,0 15,-8.600002 15,-16.100002c0,-0.199999 0,-0.5 0,-0.699999c1.200001,-1 2.099998,-2 2.799999,-3.200001z"/>
 </g>
</svg>