<svg width="60" height="60" xmlns="http://www.w3.org/2000/svg">
 <title/>

 <g>
  <title>background</title>
  <rect fill="none" id="canvas_background" height="402" width="582" y="-1" x="-1"/>
 </g>
 <g>
  <title>Layer 1</title>
  <path id="svg_1" fill="#7e7e7e" d="m30,60c16.568539,0 30,-13.431461 30,-30c0,-16.56854 -13.431461,-30 -30,-30c-16.56854,0 -30,13.43146 -30,30c0,16.568539 13.43146,30 30,30z"/>
  <path id="svg_2" fill="#111" d="m41.716572,28.846149l-23.433561,0c-3.725401,0 -6.744551,2.748911 -6.744551,6.45126l0,6.459412c0,3.701939 3.01915,6.70472 6.744551,6.70472l23.433561,0c3.72456,0 6.744968,-3.002369 6.744968,-6.70472l0,-6.40839c0,-3.702351 -3.020409,-6.502281 -6.744968,-6.502281zm-18.838192,5.253742l-2.25952,0l0,10.442047l-2.18424,0l0,-10.442047l-2.259079,0l0,-1.776993l6.702839,0l0,1.776993zm5.787809,10.888077l-1.93754,0l0,-0.987919c-0.359829,0.36562 -0.730108,0.644089 -1.11866,0.832642c-0.386808,0.196079 -0.761438,0.288769 -1.12562,0.288769c-0.449909,0 -0.783628,-0.133492 -1.013369,-0.403641c-0.22452,-0.26976 -0.340261,-0.668648 -0.340261,-1.20816l0,-7.53693l1.93754,0l0,6.91621c0,0.213112 0.042212,0.367203 0.12009,0.461082c0.083981,0.098629 0.216681,0.143398 0.39856,0.143398c0.139671,0 0.321981,-0.062199 0.53953,-0.18856c0.220171,-0.127548 0.41901,-0.288769 0.60132,-0.484447l0,-6.847683l1.93754,0l0,9.01524l0.00087,0zm8.118692,-2.108929c0,0.636559 -0.151421,1.125759 -0.455563,1.467609c-0.301968,0.341061 -0.743168,0.756981 -1.316639,0.756981c-0.381592,0 -1.263119,-0.06377 -1.558121,-0.196079c-0.29631,-0.130322 -0.575649,-0.33194 -0.828449,-0.610413l0,0.690434l-1.95929,0l0,-12.46661l1.95929,0l0,4.182999c0.262371,-0.27253 0.539539,-0.482861 0.82975,-0.625069c0.29631,-0.144981 1.137379,-0.214703 1.438469,-0.214703c0.613941,0 1.082111,-0.057831 1.404972,0.326801c0.324589,0.384628 0.485138,0.94751 0.485138,1.685478l0,5.002571l0.000443,0zm7.04744,-2.33036l-3.70668,0l0,1.698551c0,0.474148 0.061779,0.803329 0.188839,0.987518c0.129662,0.184589 0.34808,0.27412 0.657009,0.27412c0.32198,0 0.546062,-0.078041 0.674412,-0.233719c0.125748,-0.15686 0.19276,-0.49752 0.19276,-1.02832l0,-0.41037l1.994099,0l0,0.462662c0,0.923748 -0.241051,1.620117 -0.73098,2.08992c-0.482971,0.464249 -1.208302,0.696369 -2.174671,0.696369c-0.868477,0 -1.552898,-0.24638 -2.050671,-0.742722c-0.496017,-0.491581 -0.748817,-1.174881 -0.748817,-2.043568l0,-4.049511c0,-0.77916 0.27499,-1.420082 0.824528,-1.911659c0.548672,-0.491581 1.251812,-0.736782 2.121151,-0.736782c0.88763,0 1.569439,0.227772 2.045879,0.6833c0.476009,0.45673 0.714012,1.111111 0.714012,1.965542l0,2.298668l-0.00087,0zm-2.84256,-3.37096c-0.309792,0 -0.528652,0.0812 -0.663971,0.24955c-0.136189,0.157661 -0.20015,0.429401 -0.20015,0.80769l0,0.911072l1.71302,0l0,-0.911072c0,-0.378288 -0.06918,-0.650028 -0.204502,-0.80769c-0.131409,-0.16835 -0.349831,-0.24955 -0.644398,-0.24955zm-7.552612,0.118042c-0.137928,0 -0.276291,0.027328 -0.411179,0.087151c-0.13488,0.057827 -0.26759,0.1525 -0.399429,0.2757l0,5.61615c0.155769,0.144978 0.310238,0.25668 0.45948,0.320858c0.149677,0.062191 0.303268,0.09705 0.467308,0.09705c0.238441,0 0.95549,-0.063778 1.067322,-0.192909c0.110077,-0.12756 0.167519,-0.331951 0.167519,-0.620331l0,-4.65675c0,-0.305809 -0.066139,-0.535549 -0.20364,-0.693211c-0.140968,-0.15527 -0.886749,-0.233707 -1.147381,-0.233707zm2.433613,-10.688942c0.394638,0 0.801029,-0.113579 1.219566,-0.332439c0.421902,-0.221769 0.825771,-0.546329 1.20993,-0.969959l0,1.15027l2.104473,0l0,-10.391001l-2.104473,0l0,7.88817c-0.194599,0.22591 -0.411839,0.4112 -0.64669,0.558769c-0.237377,0.145901 -0.433647,0.218031 -0.587978,0.218031c-0.197109,0 -0.341381,-0.05472 -0.426929,-0.16663c-0.088081,-0.10944 -0.136311,-0.28685 -0.136311,-0.530991l0,-7.96735l-2.099861,0l0,8.68487c0,0.61928 0.124142,1.082291 0.368221,1.38903c0.24744,0.3113 0.61105,0.469229 1.100052,0.469229zm-6.189281,0.111092c0.95536,0 1.705219,-0.253691 2.25251,-0.758982c0.54269,-0.508598 0.814869,-1.20208 0.814869,-2.091629l0,-5.369169c0,-0.790482 -0.278469,-1.442091 -0.830799,-1.944071c-0.558201,-0.500731 -1.270741,-0.75275 -2.14138,-0.75275c-0.95536,0 -1.7178,0.23834 -2.283131,0.715031c-0.565329,0.47669 -0.848,1.11545 -0.848,1.92334l0,5.386589c0,0.883741 0.275949,1.583021 0.82703,2.10696c0.55191,0.52187 1.288349,0.784681 2.2089,0.784681zm-0.87232,-8.357821c0,-0.22632 0.080521,-0.408291 0.23905,-0.55089c0.1623,-0.13969 0.36989,-0.20808 0.626141,-0.20808c0.278889,0 0.503679,0.06839 0.675209,0.20808c0.170691,0.142599 0.256241,0.32457 0.256241,0.55089l0,5.661409c0,0.277719 -0.084291,0.497829 -0.252892,0.657421c-0.168169,0.15959 -0.393799,0.237928 -0.67898,0.237928c-0.27763,0 -0.492359,-0.075859 -0.641239,-0.235029c-0.14888,-0.156269 -0.223949,-0.37472 -0.223949,-0.66032l0,-5.661409l0.00042,0zm-7.45793,8.095009l2.36743,0l0,-6.672819l2.75536,-8.24382l-2.40601,0l-1.46533,5.631571l-0.14888,0l-1.53747,-5.631571l-2.38504,0l2.819519,8.50621l0,6.410429l0.000422,0z"/>
 </g>
</svg>